<svg xmlns="http://www.w3.org/2000/svg" viewBox="0 0 400 400" width="400" height="400">
  <defs>
    <radialGradient id="bg-grad" cx="50%" cy="50%" r="50%">
      <stop offset="0%" stop-color="#520B12" />
      <stop offset="65%" stop-color="#34060B" />
      <stop offset="100%" stop-color="#190205" />
    </radialGradient>

    <radialGradient id="aura-grad" cx="50%" cy="45%" r="45%">
      <stop offset="0%" stop-color="#E53E3E" stop-opacity="0.6" />
      <stop offset="60%" stop-color="#E53E3E" stop-opacity="0.15" />
      <stop offset="100%" stop-color="#E53E3E" stop-opacity="0" />
    </radialGradient>

    <radialGradient id="rudraksha-grad" cx="35%" cy="35%" r="65%">
      <stop offset="0%" stop-color="#8D4925" />
      <stop offset="40%" stop-color="#5C2B11" />
      <stop offset="85%" stop-color="#381606" />
      <stop offset="100%" stop-color="#200B02" />
    </radialGradient>

    <radialGradient id="gold-bead" cx="35%" cy="35%" r="65%">
      <stop offset="0%" stop-color="#FFF6D1" />
      <stop offset="45%" stop-color="#ECC94B" />
      <stop offset="90%" stop-color="#975A16" />
      <stop offset="100%" stop-color="#5F370E" />
    </radialGradient>

    <linearGradient id="robe-grad" x1="0%" y1="0%" x2="100%" y2="100%">
      <stop offset="0%" stop-color="#9B1C1C" />
      <stop offset="100%" stop-color="#63171B" />
    </linearGradient>

    <radialGradient id="skin-grad" cx="45%" cy="40%" r="60%">
      <stop offset="0%" stop-color="#D6905C" />
      <stop offset="85%" stop-color="#A25E30" />
    </radialGradient>

    <clipPath id="circle-clip">
      <circle cx="200" cy="200" r="192" />
    </clipPath>
  </defs>

  <circle cx="200" cy="200" r="198" fill="#1A1410" stroke="#D4A03D" stroke-width="4" />

  <g clip-path="url(#circle-clip)">
    <rect x="0" y="0" width="400" height="400" fill="url(#bg-grad)" />

    <g fill="#FFFFFF" opacity="0.4">
      <circle cx="60" cy="70" r="1.5" />
      <circle cx="340" cy="80" r="1.2" />
      <circle cx="80" cy="300" r="1.2" />
      <circle cx="320" cy="310" r="1.5" />
      <circle cx="120" cy="50" r="1" />
      <circle cx="280" cy="60" r="1" />
      <circle cx="50" cy="180" r="1" />
      <circle cx="350" cy="190" r="1.2" />
    </g>

    <g transform="translate(200, 190)" opacity="0.35" stroke="#FEB2B2" fill="none">
      <circle r="170" stroke-width="1.5" />
      <circle r="155" stroke-width="0.8" stroke-dasharray="3,3" />
      <circle r="130" stroke-width="1" />
      <circle r="90" stroke-width="0.6" stroke-dasharray="2,4" />
      <line x1="0" y1="-90" x2="0" y2="-170" transform="rotate(0)" stroke-width="0.7" />
<line x1="0" y1="-90" x2="0" y2="-170" transform="rotate(30)" stroke-width="0.7" />
<line x1="0" y1="-90" x2="0" y2="-170" transform="rotate(60)" stroke-width="0.7" />
<line x1="0" y1="-90" x2="0" y2="-170" transform="rotate(90)" stroke-width="0.7" />
<line x1="0" y1="-90" x2="0" y2="-170" transform="rotate(120)" stroke-width="0.7" />
<line x1="0" y1="-90" x2="0" y2="-170" transform="rotate(150)" stroke-width="0.7" />
<line x1="0" y1="-90" x2="0" y2="-170" transform="rotate(180)" stroke-width="0.7" />
<line x1="0" y1="-90" x2="0" y2="-170" transform="rotate(210)" stroke-width="0.7" />
<line x1="0" y1="-90" x2="0" y2="-170" transform="rotate(240)" stroke-width="0.7" />
<line x1="0" y1="-90" x2="0" y2="-170" transform="rotate(270)" stroke-width="0.7" />
<line x1="0" y1="-90" x2="0" y2="-170" transform="rotate(300)" stroke-width="0.7" />
<line x1="0" y1="-90" x2="0" y2="-170" transform="rotate(330)" stroke-width="0.7" />
      <g font-family="serif" font-size="14" font-weight="bold" fill="#FEB2B2" stroke="none" text-anchor="middle">
        <text x="0" y="-140">♈</text>
        <text x="70" y="-120">♉</text>
        <text x="120" y="-70">♊</text>
        <text x="140" y="0">♋</text>
        <text x="120" y="70">♌</text>
        <text x="70" y="120">♍</text>
        <text x="0" y="145">♎</text>
        <text x="-70" y="120">♏</text>
        <text x="-120" y="70">♐</text>
        <text x="-140" y="0">♑</text>
        <text x="-120" y="-70">♒</text>
        <text x="-70" y="-120">♓</text>
      </g>
    </g>

    <circle cx="200" cy="175" r="140" fill="url(#aura-grad)" />

    <g>
      <path d="M60,400 C70,300 120,270 200,270 C280,270 330,300 340,400 Z" fill="url(#robe-grad)" />
      <path d="M110,400 C130,320 160,285 200,285 C240,285 270,320 290,400 Z" fill="#63171B" opacity="0.6" />
      <path d="M80,350 Q140,320 200,340 Q260,320 320,350" fill="none" stroke="#ECC94B" stroke-width="2" opacity="0.7" />
      <path d="M140,400 Q200,310 260,400" fill="none" stroke="#9B1C1C" stroke-width="3" opacity="0.5" />
    </g>

    <path d="M165,210 L165,275 C165,285 235,285 235,275 L235,210 Z" fill="url(#skin-grad)" />
    <path d="M165,240 Q200,265 235,240 L235,270 Q200,290 165,270 Z" fill="#A25E30" opacity="0.4" />

    <g id="rudraksha-necklace">
      <path d="M155,235 Q200,295 245,235" fill="none" stroke="#8D4925" stroke-width="1.5" opacity="0.5" />
      <path d="M145,250 Q200,340 255,250" fill="none" stroke="#5C2B11" stroke-width="1.5" opacity="0.5" />

      
    <g>
      <circle cx="160" cy="242" r="5" fill="url(#rudraksha-grad)" stroke="#260D04" stroke-width="0.8" />
      <path d="M157,242 Q160,238.5 163,242" stroke="#421A08" stroke-width="0.6" fill="none" />
      <path d="M157,242 Q160,245.5 163,242" stroke="#421A08" stroke-width="0.6" fill="none" />
      <circle cx="158.5" cy="240.5" r="1.2" fill="#D69E2E" opacity="0.8" />
    </g>
  
    <g>
      <circle cx="172" cy="254" r="5.5" fill="url(#rudraksha-grad)" stroke="#260D04" stroke-width="0.8" />
      <path d="M168.7,254 Q172,250.15 175.3,254" stroke="#421A08" stroke-width="0.6" fill="none" />
      <path d="M168.7,254 Q172,257.85 175.3,254" stroke="#421A08" stroke-width="0.6" fill="none" />
      <circle cx="170.5" cy="252.5" r="1.2" fill="#D69E2E" opacity="0.8" />
    </g>
  
    <g>
      <circle cx="186" cy="262" r="6" fill="url(#rudraksha-grad)" stroke="#260D04" stroke-width="0.8" />
      <path d="M182.4,262 Q186,257.8 189.6,262" stroke="#421A08" stroke-width="0.6" fill="none" />
      <path d="M182.4,262 Q186,266.2 189.6,262" stroke="#421A08" stroke-width="0.6" fill="none" />
      <circle cx="184.5" cy="260.5" r="1.2" fill="#D69E2E" opacity="0.8" />
    </g>
  
    <g>
      <circle cx="200" cy="266" r="6.5" fill="url(#rudraksha-grad)" stroke="#260D04" stroke-width="0.8" />
      <path d="M196.1,266 Q200,261.45 203.9,266" stroke="#421A08" stroke-width="0.6" fill="none" />
      <path d="M196.1,266 Q200,270.55 203.9,266" stroke="#421A08" stroke-width="0.6" fill="none" />
      <circle cx="198.5" cy="264.5" r="1.2" fill="#D69E2E" opacity="0.8" />
    </g>
  
    <g>
      <circle cx="214" cy="262" r="6" fill="url(#rudraksha-grad)" stroke="#260D04" stroke-width="0.8" />
      <path d="M210.4,262 Q214,257.8 217.6,262" stroke="#421A08" stroke-width="0.6" fill="none" />
      <path d="M210.4,262 Q214,266.2 217.6,262" stroke="#421A08" stroke-width="0.6" fill="none" />
      <circle cx="212.5" cy="260.5" r="1.2" fill="#D69E2E" opacity="0.8" />
    </g>
  
    <g>
      <circle cx="228" cy="254" r="5.5" fill="url(#rudraksha-grad)" stroke="#260D04" stroke-width="0.8" />
      <path d="M224.7,254 Q228,250.15 231.3,254" stroke="#421A08" stroke-width="0.6" fill="none" />
      <path d="M224.7,254 Q228,257.85 231.3,254" stroke="#421A08" stroke-width="0.6" fill="none" />
      <circle cx="226.5" cy="252.5" r="1.2" fill="#D69E2E" opacity="0.8" />
    </g>
  
    <g>
      <circle cx="240" cy="242" r="5" fill="url(#rudraksha-grad)" stroke="#260D04" stroke-width="0.8" />
      <path d="M237,242 Q240,238.5 243,242" stroke="#421A08" stroke-width="0.6" fill="none" />
      <path d="M237,242 Q240,245.5 243,242" stroke="#421A08" stroke-width="0.6" fill="none" />
      <circle cx="238.5" cy="240.5" r="1.2" fill="#D69E2E" opacity="0.8" />
    </g>
  
      
    <g>
      <circle cx="145" cy="250.2" r="2.5" fill="url(#gold-bead)" />
      <circle cx="145" cy="259.8" r="2.5" fill="url(#gold-bead)" />
      <circle cx="145" cy="255" r="6" fill="url(#rudraksha-grad)" stroke="#260D04" stroke-width="1" />
      <path d="M145,249 L145,261" stroke="#2B0F03" stroke-width="0.9" />
      <path d="M140.8,251.4 Q143.8,255 140.8,258.6" stroke="#2B0F03" stroke-width="0.8" fill="none" />
      <path d="M149.2,251.4 Q146.2,255 149.2,258.6" stroke="#2B0F03" stroke-width="0.8" fill="none" />
      <circle cx="142.5" cy="253" r="1.4" fill="#D69E2E" opacity="0.7" />
    </g>
  
    <g>
      <circle cx="156" cy="269.8" r="2.5" fill="url(#gold-bead)" />
      <circle cx="156" cy="280.2" r="2.5" fill="url(#gold-bead)" />
      <circle cx="156" cy="275" r="6.5" fill="url(#rudraksha-grad)" stroke="#260D04" stroke-width="1" />
      <path d="M156,268.5 L156,281.5" stroke="#2B0F03" stroke-width="0.9" />
      <path d="M151.45,271.1 Q154.7,275 151.45,278.9" stroke="#2B0F03" stroke-width="0.8" fill="none" />
      <path d="M160.55,271.1 Q157.3,275 160.55,278.9" stroke="#2B0F03" stroke-width="0.8" fill="none" />
      <circle cx="153.5" cy="273" r="1.4" fill="#D69E2E" opacity="0.7" />
    </g>
  
    <g>
      <circle cx="172" cy="289.4" r="2.5" fill="url(#gold-bead)" />
      <circle cx="172" cy="300.6" r="2.5" fill="url(#gold-bead)" />
      <circle cx="172" cy="295" r="7" fill="url(#rudraksha-grad)" stroke="#260D04" stroke-width="1" />
      <path d="M172,288 L172,302" stroke="#2B0F03" stroke-width="0.9" />
      <path d="M167.1,290.8 Q170.6,295 167.1,299.2" stroke="#2B0F03" stroke-width="0.8" fill="none" />
      <path d="M176.9,290.8 Q173.4,295 176.9,299.2" stroke="#2B0F03" stroke-width="0.8" fill="none" />
      <circle cx="169.5" cy="293" r="1.4" fill="#D69E2E" opacity="0.7" />
    </g>
  
    <g>
      <circle cx="188" cy="304" r="2.5" fill="url(#gold-bead)" />
      <circle cx="188" cy="316" r="2.5" fill="url(#gold-bead)" />
      <circle cx="188" cy="310" r="7.5" fill="url(#rudraksha-grad)" stroke="#260D04" stroke-width="1" />
      <path d="M188,302.5 L188,317.5" stroke="#2B0F03" stroke-width="0.9" />
      <path d="M182.75,305.5 Q186.5,310 182.75,314.5" stroke="#2B0F03" stroke-width="0.8" fill="none" />
      <path d="M193.25,305.5 Q189.5,310 193.25,314.5" stroke="#2B0F03" stroke-width="0.8" fill="none" />
      <circle cx="185.5" cy="308" r="1.4" fill="#D69E2E" opacity="0.7" />
    </g>
  
    <g>
      <circle cx="200" cy="309.2" r="2.5" fill="url(#gold-bead)" />
      <circle cx="200" cy="322.8" r="2.5" fill="url(#gold-bead)" />
      <circle cx="200" cy="316" r="8.5" fill="url(#rudraksha-grad)" stroke="#260D04" stroke-width="1" />
      <path d="M200,307.5 L200,324.5" stroke="#2B0F03" stroke-width="0.9" />
      <path d="M194.05,310.9 Q198.3,316 194.05,321.1" stroke="#2B0F03" stroke-width="0.8" fill="none" />
      <path d="M205.95,310.9 Q201.7,316 205.95,321.1" stroke="#2B0F03" stroke-width="0.8" fill="none" />
      <circle cx="197.5" cy="314" r="1.4" fill="#D69E2E" opacity="0.7" />
    </g>
  
    <g>
      <circle cx="212" cy="304" r="2.5" fill="url(#gold-bead)" />
      <circle cx="212" cy="316" r="2.5" fill="url(#gold-bead)" />
      <circle cx="212" cy="310" r="7.5" fill="url(#rudraksha-grad)" stroke="#260D04" stroke-width="1" />
      <path d="M212,302.5 L212,317.5" stroke="#2B0F03" stroke-width="0.9" />
      <path d="M206.75,305.5 Q210.5,310 206.75,314.5" stroke="#2B0F03" stroke-width="0.8" fill="none" />
      <path d="M217.25,305.5 Q213.5,310 217.25,314.5" stroke="#2B0F03" stroke-width="0.8" fill="none" />
      <circle cx="209.5" cy="308" r="1.4" fill="#D69E2E" opacity="0.7" />
    </g>
  
    <g>
      <circle cx="228" cy="289.4" r="2.5" fill="url(#gold-bead)" />
      <circle cx="228" cy="300.6" r="2.5" fill="url(#gold-bead)" />
      <circle cx="228" cy="295" r="7" fill="url(#rudraksha-grad)" stroke="#260D04" stroke-width="1" />
      <path d="M228,288 L228,302" stroke="#2B0F03" stroke-width="0.9" />
      <path d="M223.1,290.8 Q226.6,295 223.1,299.2" stroke="#2B0F03" stroke-width="0.8" fill="none" />
      <path d="M232.9,290.8 Q229.4,295 232.9,299.2" stroke="#2B0F03" stroke-width="0.8" fill="none" />
      <circle cx="225.5" cy="293" r="1.4" fill="#D69E2E" opacity="0.7" />
    </g>
  
    <g>
      <circle cx="244" cy="269.8" r="2.5" fill="url(#gold-bead)" />
      <circle cx="244" cy="280.2" r="2.5" fill="url(#gold-bead)" />
      <circle cx="244" cy="275" r="6.5" fill="url(#rudraksha-grad)" stroke="#260D04" stroke-width="1" />
      <path d="M244,268.5 L244,281.5" stroke="#2B0F03" stroke-width="0.9" />
      <path d="M239.45,271.1 Q242.7,275 239.45,278.9" stroke="#2B0F03" stroke-width="0.8" fill="none" />
      <path d="M248.55,271.1 Q245.3,275 248.55,278.9" stroke="#2B0F03" stroke-width="0.8" fill="none" />
      <circle cx="241.5" cy="273" r="1.4" fill="#D69E2E" opacity="0.7" />
    </g>
  
    <g>
      <circle cx="255" cy="250.2" r="2.5" fill="url(#gold-bead)" />
      <circle cx="255" cy="259.8" r="2.5" fill="url(#gold-bead)" />
      <circle cx="255" cy="255" r="6" fill="url(#rudraksha-grad)" stroke="#260D04" stroke-width="1" />
      <path d="M255,249 L255,261" stroke="#2B0F03" stroke-width="0.9" />
      <path d="M250.8,251.4 Q253.8,255 250.8,258.6" stroke="#2B0F03" stroke-width="0.8" fill="none" />
      <path d="M259.2,251.4 Q256.2,255 259.2,258.6" stroke="#2B0F03" stroke-width="0.8" fill="none" />
      <circle cx="252.5" cy="253" r="1.4" fill="#D69E2E" opacity="0.7" />
    </g>
  

      <g transform="translate(200, 324)">
        <circle cx="0" cy="0" r="4" fill="url(#gold-bead)" />
        <path d="M-2,4 L-4,18 L4,18 L2,4 Z" fill="#C53030" />
        <path d="M-1,4 L-3,16 L3,16 L1,4 Z" fill="#E53E3E" />
        <circle cx="0" cy="3" r="2" fill="#ECC94B" />
      </g>
    </g>

    <g id="face">
      <ellipse cx="138" cy="170" rx="8" ry="16" fill="#A25E30" />
      <ellipse cx="262" cy="170" rx="8" ry="16" fill="#A25E30" />
      <ellipse cx="140" cy="170" rx="6" ry="13" fill="url(#skin-grad)" />
      <ellipse cx="260" cy="170" rx="6" ry="13" fill="url(#skin-grad)" />
      <circle cx="140" cy="183" r="2.5" fill="url(#gold-bead)" />
      <circle cx="260" cy="183" r="2.5" fill="url(#gold-bead)" />

      <ellipse cx="200" cy="168" rx="54" ry="68" fill="url(#skin-grad)" />
      <path d="M154,180 C154,230 180,248 200,248 C220,248 246,230 246,180 Z" fill="url(#skin-grad)" />

      <ellipse cx="166" cy="185" rx="14" ry="10" fill="#A25E30" opacity="0.3" />
      <ellipse cx="234" cy="185" rx="14" ry="10" fill="#A25E30" opacity="0.3" />

      <g id="eyes">
        <ellipse cx="175" cy="160" rx="11" ry="6" fill="#FFFFFF" />
        <ellipse cx="175" cy="160" rx="5.5" ry="5.5" fill="#2D1A0E" />
        <circle cx="175" cy="160" r="3" fill="#170C05" />
        <circle cx="173.5" cy="158.5" r="1.5" fill="#FFFFFF" />
        <path d="M163,160 Q175,152 187,160" fill="none" stroke="#1F130B" stroke-width="1.8" />

        <ellipse cx="225" cy="160" rx="11" ry="6" fill="#FFFFFF" />
        <ellipse cx="225" cy="160" rx="5.5" ry="5.5" fill="#2D1A0E" />
        <circle cx="225" cy="160" r="3" fill="#170C05" />
        <circle cx="223.5" cy="158.5" r="1.5" fill="#FFFFFF" />
        <path d="M213,160 Q225,152 237,160" fill="none" stroke="#1F130B" stroke-width="1.8" />
      </g>

      <g id="eyebrows">
        <path d="M160,150 Q175,142 188,148" fill="none" stroke="#E2E8F0" stroke-width="3" stroke-linecap="round" />
        <path d="M212,148 Q225,142 240,150" fill="none" stroke="#E2E8F0" stroke-width="3" stroke-linecap="round" />
      </g>

      <path d="M200,150 L196,182 Q200,188 204,182 L200,150" fill="#A25E30" opacity="0.4" />
      <path d="M192,183 Q200,189 208,183" fill="none" stroke="#A25E30" stroke-width="1.5" stroke-linecap="round" />

      <path d="M188,202 Q200,210 212,202" fill="none" stroke="#8C3827" stroke-width="2.2" stroke-linecap="round" />
      <path d="M190,202 Q200,205 210,202" fill="none" stroke="#B8533D" stroke-width="1.2" />

      

      <g id="tilak">
        
      <path d="M178,132 Q200,136 222,132" fill="none" stroke="#FFF5EA" stroke-width="2.5" stroke-linecap="round" opacity="0.9" />
      <path d="M180,136 Q200,140 220,136" fill="none" stroke="#FFF5EA" stroke-width="2.5" stroke-linecap="round" opacity="0.9" />
      <path d="M182,140 Q200,144 218,140" fill="none" stroke="#FFF5EA" stroke-width="2.5" stroke-linecap="round" opacity="0.9" />
      <circle cx="200" cy="136" r="2.8" fill="#C53030" />
      <circle cx="200" cy="136" r="1.2" fill="#ECC94B" />
    
      </g>
    </g>

    <g id="hair-and-beard">
      
      <path d="M135,145 C130,85 170,55 200,55 C230,55 270,85 265,145 Z" fill="#C53030" />
      <path d="M130,135 Q200,105 270,135 Q200,120 130,135 Z" fill="#ECC94B" opacity="0.7" />
      <path d="M138,115 Q200,85 262,115" fill="none" stroke="#C05621" stroke-width="3" />
      <circle cx="200" cy="105" r="5" fill="url(#gold-bead)" />
      <path d="M200,100 L200,80" stroke="#ECC94B" stroke-width="2" />
      <circle cx="200" cy="80" r="2.5" fill="#E53E3E" />
    
      
      <path d="M154,185 C145,240 160,310 200,320 C240,310 255,240 246,185 C235,210 215,225 200,225 C185,225 165,210 154,185 Z" fill="#F8FAFC" />
      <path d="M170,210 Q185,280 200,315" fill="none" stroke="#CBD5E1" stroke-width="1.5" />
      <path d="M230,210 Q215,280 200,315" fill="none" stroke="#CBD5E1" stroke-width="1.5" />
      <path d="M200,225 L200,318" fill="none" stroke="#E2E8F0" stroke-width="1.8" />
      <path d="M178,198 Q192,208 200,202 Q208,208 222,198 Q210,212 200,208 Q190,212 178,198 Z" fill="#F8FAFC" stroke="#E2E8F0" stroke-width="0.8" />
    
    </g>
  </g>

  <circle cx="200" cy="200" r="192" fill="none" stroke="#ECC94B" stroke-width="2.5" opacity="0.8" />
  <circle cx="200" cy="200" r="187" fill="none" stroke="#D4A03D" stroke-width="1" stroke-dasharray="4,4" opacity="0.6" />
</svg>