<svg xmlns="http://www.w3.org/2000/svg" viewBox="0 0 400 400" width="400" height="400">
  <defs>
    <radialGradient id="bg-grad" cx="50%" cy="50%" r="50%">
      <stop offset="0%" stop-color="#4C1D95" />
      <stop offset="70%" stop-color="#1E1B4B" />
      <stop offset="100%" stop-color="#0A0512" />
    </radialGradient>
    <radialGradient id="aura-grad" cx="50%" cy="45%" r="45%">
      <stop offset="0%" stop-color="#E9D5FF" stop-opacity="0.6" />
      <stop offset="100%" stop-color="#E9D5FF" stop-opacity="0" />
    </radialGradient>
  </defs>
  <rect width="400" height="400" fill="url(#bg-grad)" rx="30"/>
  <circle cx="200" cy="180" r="130" fill="url(#aura-grad)" />
  
  <g transform="translate(100, 70)">
    <path d="M 20 260 Q 100 180 180 260 Z" fill="#E9D5FF" opacity="0.9"/>
    <circle cx="100" cy="115" r="48" fill="#F3D5B5"/>
    <path d="M 52 115 C 52 65 148 65 148 115 C 148 85 52 85 52 115 Z" fill="#1C1018"/>
    <circle cx="100" cy="108" r="5" fill="#C1121F"/>
    <path d="M 40 210 Q 100 250 160 210 L 175 260 L 25 260 Z" fill="#4C1D95"/>
    <path d="M 50 170 Q 100 210 150 170" fill="none" stroke="#E9D5FF" stroke-width="4"/>
  </g>
  
  <rect x="12" y="12" width="376" height="376" rx="22" fill="none" stroke="#E9D5FF" stroke-width="2" opacity="0.4"/>
  <text x="200" y="360" font-family="'Cinzel', 'Georgia', serif" font-size="14" font-weight="bold" fill="#E9D5FF" text-anchor="middle" letter-spacing="1">ORACLE MAYA STARLIGHT</text>
</svg>